<svg id="Layer_1" data-name="Layer 1" xmlns="http://www.w3.org/2000/svg" viewBox="0 0 504.21 171.85"><defs><style>.cls-1{fill:#231f20;}.cls-2,.cls-3,.cls-5{font-size:38.3px;font-family:UnitRoundedPro-Light, Unit Rounded Pro;font-weight:300;}.cls-2{fill:#f7a18b;}.cls-3{fill:#99d5e9;}.cls-4{letter-spacing:0em;}.cls-5{fill:#acdcd2;}.cls-6{letter-spacing:0em;}.cls-7{letter-spacing:0em;}</style></defs><title>fosterWordMark</title><path class="cls-1" d="M501,1159.77a45.08,45.08,0,0,0-.84-4.61,2.36,2.36,0,0,1,.55-2.1,18.15,18.15,0,0,1,2.38-2.08c1.39-1.11,1.14-2.29.8-3.92s-2.2-2.84-6.4-3.25a56.92,56.92,0,0,0-10.41.37,5.12,5.12,0,0,0-4.14,2.74c-.18.43-.64,1.39-1.07,2.4a8,8,0,0,0-.3,5.44,32.77,32.77,0,0,0,2.56,6.57c1.66,2.78,13.35,1,13.35,1S501.22,1162,501,1159.77Z" transform="translate(-125.8 -1098.16)"/><path class="cls-1" d="M478.7,1178l-3.53-20.51a42.88,42.88,0,0,1,1.31-15.14c2.22-8.32-1.49-11.36-3.48-14s-.67-6.2-.67-6.2,1.48-4.9-6.8-3.71-9.67,11.63-9.67,11.63c-1.19,9.5,1.7,43.58.91,49.07s.9,5.84,2.35,6.79,8.31,1.53,14.06.33l.52-.13s5.55-1.07,5.27-4.58Z" transform="translate(-125.8 -1098.16)"/><path class="cls-1" d="M534.52,1106.37a2.41,2.41,0,0,1,1.12,2l-.4,13.09s-.25,1.7-3.42,1.54-25.3-1.86-25.3-1.86-7.79-.35-12.73-3.71-13.35-5.22-18.69-5.19-14.85.27-16.52.39-2.7-.49-2.9-1.55a30.17,30.17,0,0,1,.09-4.44,2.15,2.15,0,0,1,1.73-1.78C466.63,1102.22,511.47,1090.36,534.52,1106.37Z" transform="translate(-125.8 -1098.16)"/><path class="cls-1" d="M534.52,1197.88a2.41,2.41,0,0,0,1.12-2l-.4-13.09s-.25-1.7-3.42-1.54-25.3,1.86-25.3,1.86-7.79.35-12.73,3.71S480.44,1192,475.1,1192s-14.85-.27-16.52-.39-2.7.49-2.9,1.55a30.17,30.17,0,0,0,.09,4.44,2.17,2.17,0,0,0,1.73,1.79C466.63,1202,511.47,1213.89,534.52,1197.88Z" transform="translate(-125.8 -1098.16)"/><path class="cls-1" d="M410.42,1137.51c0-1.23-.08-2.74-.15-3.54a2.07,2.07,0,0,1,.52-1.55,14,14,0,0,1,1.69-1.39c1-.73.92-1.64.83-2.9s-1.16-2.31-3.79-2.93a30.75,30.75,0,0,0-6.65-.5,3.32,3.32,0,0,0-2.86,1.76c-.15.32-.52,1-.88,1.74a7.15,7.15,0,0,0-.64,4.08,27.86,27.86,0,0,0,1.08,5.16c.82,2.22,8.41,1.73,8.41,1.73S410.4,1139.18,410.42,1137.51Z" transform="translate(-125.8 -1098.16)"/><path class="cls-1" d="M376.84,1121.38l23.92-2.45a55.23,55.23,0,0,1,17.45,2.26c9.52,2.81,13.23-.86,16.43-2.76s7.21-.34,7.21-.34,5.6,1.84,4.64-6.83-13-10.74-13-10.74c-10.94-1.8-50.53-.85-56.84-2s-6.81.59-8,2-2.2,8.54-1.09,14.59c0,.18.07.37.11.55,0,0,1,5.82,5,5.75Z" transform="translate(-125.8 -1098.16)"/><path class="cls-1" d="M406.39,1206.65a3.22,3.22,0,0,1-2.36.79l-15.21-.9s-2-.28-1.74-2.77,2.6-19.88,2.6-19.88.54-6.13,4.54-9.87,6.3-10.3,6.35-14.52-.06-11.73-.16-13a1.86,1.86,0,0,1,1.85-2.21,50,50,0,0,1,5.16.26,2.41,2.41,0,0,1,2.05,1.45C412.4,1153.27,425.41,1189.19,406.39,1206.65Z" transform="translate(-125.8 -1098.16)"/><path class="cls-1" d="M249.7,1123.63c1.39-1.23,3-2.89,3.8-3.79a2.9,2.9,0,0,1,2.24-.95,20,20,0,0,1,3.25.62c1.79.43,2.75-.57,4.07-2s1.4-3.76-.55-7.56a50.18,50.18,0,0,0-6.12-8.53,4.91,4.91,0,0,0-4.83-1.65c-.5.13-1.63.39-2.81.71a10.16,10.16,0,0,0-5.2,3.38,43.62,43.62,0,0,0-4.66,6.55c-1.64,3.26,6.51,11.91,6.51,11.91S247.81,1125.31,249.7,1123.63Z" transform="translate(-125.8 -1098.16)"/><path class="cls-1" d="M257.83,1136.49l-6.7,23.4a58.81,58.81,0,0,1-8.41,15.56c-5.94,7.9-4.12,12.76-3.66,16.48s-2.37,6.91-2.37,6.91-3.65,4.57,4.23,6.91,14.11-8.18,14.11-8.18c5.6-9.6,19.38-47.18,22.7-52.68s2-6.62,1.18-8.26-6.61-5.26-12.26-6.48l-.52-.1s-5.41-1.28-6.86,2.58Z" transform="translate(-125.8 -1098.16)"/><path class="cls-1" d="M203.62,1187.39a3.23,3.23,0,0,0,2.21,1.93l16.39,3.88s2.19.29,2.86-3.35,4.63-29.3,4.63-29.3,1.7-9-1.12-15.66-2.84-16.87-1.33-22.91,4.41-16.75,5-18.61.13-3.22-1.13-3.79a43.6,43.6,0,0,0-5.55-1.38,2.63,2.63,0,0,0-2.7,1.38C217.08,1109.05,190,1156,203.62,1187.39Z" transform="translate(-125.8 -1098.16)"/><path class="cls-1" d="M357.82,1104.56a2.82,2.82,0,0,1,1.27,2.15l1,14.7s-.05,1.93-3,2.06-23.93.38-23.93.38-7.34.36-12.34-2.92-13.08-4.56-18.09-4-13.9,1.75-15.46,2-2.58-.29-2.87-1.45a40.78,40.78,0,0,1-.41-5,2.34,2.34,0,0,1,1.44-2.17C293.7,1106.5,334.48,1088.86,357.82,1104.56Z" transform="translate(-125.8 -1098.16)"/><path class="cls-1" d="M347.53,1199.7a2.83,2.83,0,0,0,1.26-2.15l1-14.71s-.05-1.93-3-2.06-23.92-.37-23.92-.37-7.35-.37-12.34,2.92-13.09,4.55-18.09,4-13.9-1.74-15.46-2-2.58.28-2.88,1.45a40.93,40.93,0,0,0-.4,5,2.33,2.33,0,0,0,1.44,2.17C283.41,1197.75,324.18,1215.39,347.53,1199.7Z" transform="translate(-125.8 -1098.16)"/><path class="cls-1" d="M296.59,1137l14.72,13.58a48.34,48.34,0,0,1,8.38,12.16c3.65,7.52,7.85,7.78,10.74,8.72s4.2,4.32,4.2,4.32,2,4.52,6.56-.92-1-14.11-1-14.11c-5-7.84-27.58-32-30.42-36.62s-4.13-3.92-5.62-3.84-6.2,3.39-9.1,7.46l-.26.38s-2.86,3.86-.55,6.36Z" transform="translate(-125.8 -1098.16)"/><path class="cls-1" d="M574.22,1127.12c.17-2.88.65-6.39.93-8.25a5,5,0,0,0-.87-3.71,30.31,30.31,0,0,0-3.47-3.58c-2-1.9-1.72-4-1.33-6.94s2.94-5.16,8.81-6.11a64.63,64.63,0,0,1,14.66.12,7.39,7.39,0,0,1,6,4.67c.28.77,1,2.44,1.62,4.22a17.74,17.74,0,0,1,.73,9.66A69.29,69.29,0,0,1,598,1129c-2.18,5-18.71,2.41-18.71,2.41S574,1131,574.22,1127.12Z" transform="translate(-125.8 -1098.16)"/><path class="cls-1" d="M622.12,1189.73l-12.72-16.52a53.18,53.18,0,0,1-6.64-14.07c-2.61-8.45-6.72-9.37-9.45-10.81s-3.58-5.18-3.58-5.18-1.4-5.06-6.61-.05-1,15-1,15c3.92,9,23,37.88,25.15,43.13s3.55,4.75,5,4.9,6.59-2.61,10-6.43c.1-.12.21-.24.3-.36s3.35-3.6,1.41-6.59Z" transform="translate(-125.8 -1098.16)"/><path class="cls-1" d="M555,1204.59a2.93,2.93,0,0,0,2.51,1.5l16.3-.47s2.12-.33,1.91-4.56-2.4-33.87-2.4-33.87-.47-10.42-4.67-17-6.55-17.89-6.53-25,.29-19.87.42-22.11-.61-3.61-1.93-3.88a35.43,35.43,0,0,0-5.54.09,2.77,2.77,0,0,0-2.21,2.32C549.55,1113.72,534.94,1173.67,555,1204.59Z" transform="translate(-125.8 -1098.16)"/><path class="cls-1" d="M138.84,1205a3.15,3.15,0,0,0,2.52,1.1l16.2-.71s2.11-.29,1.84-3.53-2.83-25.9-2.83-25.9-.59-8-4.86-13-6.74-13.57-6.82-19,0-15.24.14-17-.66-2.75-2-2.93a48.13,48.13,0,0,0-5.51.19,2.53,2.53,0,0,0-2.17,1.82C132.28,1135.47,118.53,1181.72,138.84,1205Z" transform="translate(-125.8 -1098.16)"/><path class="cls-1" d="M167.37,1146.1c-.05-1.85-.28-4.11-.41-5.31a3.3,3.3,0,0,1,.6-2.36,19.1,19.1,0,0,1,2.2-2.22c1.27-1.17,1.13-2.54,1-4.42s-1.72-3.37-5.31-4.11a38.46,38.46,0,0,0-9-.23,4.55,4.55,0,0,0-3.76,2.86c-.19.49-.64,1.54-1.08,2.67a11.9,11.9,0,0,0-.62,6.18,45.87,45.87,0,0,0,1.78,7.65c1.25,3.27,11.46,2,11.46,2S167.45,1148.6,167.37,1146.1Z" transform="translate(-125.8 -1098.16)"/><path class="cls-1" d="M144,1098.36l21.84,2.84a54.91,54.91,0,0,0,16.08-1.35c8.83-2.06,12.1,1.17,15,2.88s6.6.51,6.6.51,5.19-1.37,4,5.94-12.25,8.66-12.25,8.66c-10.09,1.17-46.36-.92-52.19-.16s-6.22-.72-7.24-2-1.73-7.3-.52-12.37c0-.16.08-.31.13-.46,0,0,1.07-4.9,4.81-4.71Z" transform="translate(-125.8 -1098.16)"/><text class="cls-2" transform="translate(0 162.2)">local</text><text class="cls-3" transform="translate(335.17 161.82)"><tspan class="cls-4">c</tspan><tspan x="16.24" y="0">onnection</tspan></text><text class="cls-5" transform="translate(118.95 161.82)"><tspan class="cls-6">c</tspan><tspan x="16.24" y="0">ommuni</tspan><tspan class="cls-7" x="141.46" y="0">t</tspan><tspan x="153.56" y="0">y</tspan></text><path class="cls-1" d="M225.4,1255.69c0-.93-.14-2.06-.21-2.67a1.7,1.7,0,0,1,.3-1.19,10.55,10.55,0,0,1,1.11-1.11c.64-.59.57-1.28.48-2.22s-.87-1.7-2.67-2.07a18.75,18.75,0,0,0-4.54-.12,2.3,2.3,0,0,0-1.89,1.44c-.09.25-.32.78-.54,1.34a5.88,5.88,0,0,0-.31,3.11,22.86,22.86,0,0,0,.89,3.85c.63,1.65,5.77,1,5.77,1S225.43,1257,225.4,1255.69Z" transform="translate(-125.8 -1098.16)"/><path class="cls-1" d="M442.19,1255.69c0-.93-.14-2.06-.21-2.67a1.71,1.71,0,0,1,.31-1.19,10.4,10.4,0,0,1,1.1-1.11c.65-.59.58-1.28.48-2.22s-.86-1.7-2.67-2.07a18.67,18.67,0,0,0-4.53-.12,2.29,2.29,0,0,0-1.89,1.44c-.1.25-.32.78-.54,1.34a6,6,0,0,0-.32,3.11,23.87,23.87,0,0,0,.9,3.85c.63,1.65,5.76,1,5.76,1S442.23,1257,442.19,1255.69Z" transform="translate(-125.8 -1098.16)"/></svg>